# Blender 4.5.4 LTS
# www.blender.org
mtllib chargingStation.mtl
o Cube
v -0.328950 -0.022950 -1.134925
v -0.328950 0.022950 -1.134925
v -0.328950 -0.022950 -2.879125
v -0.328950 0.022950 -2.879125
v -0.328950 -0.022950 -2.004747
v -0.328950 0.022950 -2.004747
v -0.328950 -0.022950 -2.879125
v -0.328950 0.022950 -2.879125
v 0.328950 -0.022950 -2.879125
v 0.328950 0.022950 -2.879125
v -0.328950 -0.022950 -1.134925
v -0.328950 0.022950 -1.134925
v -0.328950 -0.022950 -2.879125
v 0.328950 -0.022950 -1.134925
v 0.328950 0.022950 -1.134925
v 0.328950 -0.022950 -2.879125
v -0.328950 0.022950 -1.134925
v -0.328950 0.022950 -2.879125
v 0.328950 -0.022950 -1.134925
v 0.328950 0.022950 -1.134925
v 0.328950 -0.022950 -2.879125
v 0.328950 0.022950 -2.879125
v -0.328950 0.022950 -3.279125
v -0.328950 -0.022950 -3.279125
v 0.328950 -0.022950 -3.279125
v 0.328950 0.022950 -3.279125
v -0.328950 1.022950 -2.879125
v 0.328950 1.022950 -2.879125
v -0.328950 1.022950 -3.279125
v 0.328950 1.022950 -3.279125
v -0.328950 1.222950 -3.279125
v 0.328950 1.222950 -3.279125
vn -1.0000 -0.0000 -0.0000
vn -0.0000 -0.0000 1.0000
vn -0.0000 1.0000 -0.0000
vn 1.0000 -0.0000 -0.0000
vn -0.0000 -1.0000 -0.0000
vn -0.0000 -0.0000 -1.0000
vn -0.0000 0.8944 0.4472
vt 0.375000 0.000000
vt 0.625000 0.000000
vt 0.625000 0.250000
vt 0.375000 0.250000
vt 0.375000 0.500000
vt 0.625000 0.500000
vt 0.875000 0.500000
vt 0.875000 0.750000
vt 0.625000 0.750000
vt 0.375000 0.750000
vt 0.625000 1.000000
vt 0.375000 1.000000
vt 0.125000 0.500000
vt 0.125000 0.750000
s 0
usemtl Material.001
f 1/1/1 2/2/1 4/3/1 3/4/1
f 7/4/2 9/5/2 10/6/2 8/3/2
f 22/6/3 18/7/3 17/8/3 20/9/3
f 21/5/4 22/6/4 20/9/4 19/10/4
f 14/10/2 15/9/2 12/11/2 11/12/2
f 13/13/5 16/5/5 14/10/5 11/14/5
f 9/5/5 7/4/5 24/4/5 25/5/5
usemtl Blau.001
f 24/4/6 23/3/6 26/6/6 25/5/6
f 10/6/4 9/5/4 25/5/4 26/6/4
f 7/4/1 8/3/1 23/3/1 24/4/1
f 26/6/6 23/3/6 29/3/6 30/6/6
f 23/3/1 8/3/1 27/3/1 29/3/1
f 10/6/4 26/6/4 30/6/4 28/6/4
f 8/3/2 10/6/2 28/6/2 27/3/2
f 29/3/1 27/3/1 31/3/1
f 30/6/6 29/3/6 31/3/6 32/6/6
f 32/6/4 28/6/4 30/6/4
f 28/6/7 32/6/7 31/3/7 27/3/7
l 5 6
